<?xml version="1.0" encoding="UTF-8"?>
<!-- Generator: Adobe Illustrator 15.1.0, SVG Export Plug-In . SVG Version: 6.00 Build 0)  -->
<!DOCTYPE svg PUBLIC "-//W3C//DTD SVG 1.1//EN" "http://www.w3.org/Graphics/SVG/1.1/DTD/svg11.dtd">
<svg version="1.1" id="Calque_1" xmlns="http://www.w3.org/2000/svg" xmlns:xlink="http://www.w3.org/1999/xlink" x="0px" y="0px" width="112.34px" height="133.696px" viewBox="0 0 112.34 133.696" enable-background="new 0 0 112.34 133.696" xml:space="preserve">
<g>
	<path fill="#FFFF00" stroke="#000000" stroke-miterlimit="10" d="M56.17,133.176C12.318,120.831,3.342,88.986,1.21,67.042   c-1.599-16.461,0-66.155,0-66.155s26.507,9.772,54.96-0.357c28.45,10.129,54.96,0.278,54.96,0.278s1.598,49.693,0,66.155   C109,88.923,100.021,120.831,56.17,133.176z"/>
</g>
<g>
	<path fill="#080800" d="M99.669,8.236c1.7,1.63,4.229,2.91,4.69,5.43c-0.211,2.06-2.2,2.92-3.79,3.76   c-4.78,2.4-10,3.69-14.971,5.59c4.04,0.63,8.261,1.74,12.29,0.45c1.63-0.49,1.83-2.65,2.88-3.74c1.69,1.33,3.931,3.58,2.181,5.79   c-2.66,4.55-8.53,4.07-13.04,4.66c3.43,1.45,7.43,3.78,10.939,1.11c1.05,2.09,1.75,5.19-0.62,6.7   c-4.069,2.42-8.92,0.19-12.989-1.14c3.08,2.97,6.569,6.97,11.38,5.49c0.14,2.04,1.43,5.04-1.061,6.17   c-3.96,1.68-7.689-1.73-11.189-3.17c1.66,3.16,3.38,6.75,6.71,8.44c1.88,0.8,3.2-1.09,4.64-1.94c0.16,3.09,1.18,7.91-3.01,8.74   c-5.4,0.46-8.6-4.84-12.17-8.01c1.479,4.22,3.39,8.57,6.88,11.51c1.35,1.23,3.21,0.08,4.74-0.08c0.63,2.81,0.21,6.56-3.261,7.06   c-6.56-1.39-9.52-8.2-13.52-12.85c0.74,4.86,2.36,9.69,5.35,13.64c0.92,1.37,2.761,1.2,4.15,1.67c-1.04,4.16-6.61,6.351-9.35,2.49   c-4.2-6.91-6.9-14.62-10.261-21.96c-1.81,3.24-3.04,6.76-3.819,10.38c2.8,4.12,5.439,9.23,10.87,10.15   c-0.931,0.439-1.86,0.89-2.79,1.34c4.06,4.87,7.729,10.069,12.1,14.66c2.72-2.33,5.22-5.101,8.61-6.46   c1.859-0.74,3.76,0.399,5.54,0.859c-0.841,0.2-2.511,0.61-3.341,0.811c-0.579,1.989-2.29,2.89-4.159,3.34   c-0.271,0.28-0.82,0.85-1.091,1.14c-1.409,0.44-2.79,0.97-4.14,1.57c4.74-0.2,9.14-2.59,13.92-2.33c1.07,0.28,1.811,1.15,2.65,1.81   c-0.28,1.12-0.54,2.24-0.82,3.36c-0.31-0.73-0.939-2.19-1.25-2.92c-3.189,4.3-8.83,2.18-13.31,2.34c3,2.54,7.09,4.24,8.479,8.22   c-0.6,0.971-1.79,2.92-2.39,3.891c0.1-0.891,0.3-2.681,0.399-3.58c-0.76,0.02-2.279,0.06-3.04,0.069   c-0.29-0.869-0.6-1.739-0.899-2.609c-1.37-0.41-2.7-1.03-3.11-2.521c-0.79-2.1-2.71-3.3-4.399-4.6c-2.29,0.46-4.591,0.94-6.94,0.9   c-0.9,0.449-1.8,0.89-2.7,1.34c-0.35-0.46-1.06-1.37-1.42-1.83c-0.83,1.16-1.689,2.3-2.56,3.43c-0.44-2.979,0.989-6.62,4.37-6.91   c3.029,0.391,5.89,1.62,8.949,1.851c-3.5-4.79-7.3-9.351-11.229-13.78c-1.04,1.229-2.101,2.44-3.17,3.65   c0.78-4.881-2.46-8.58-5.92-11.45c-0.2,7.12,2.89,14.399,8.97,18.359c-2.89,0.11-5.78,0.131-8.65-0.18   c2.91,5.35,5.021,12.7,11.79,14.19c2.721-0.591,2.761-4.03,3.83-6.07c0.95,2.16,3.021,4.42,1.9,6.91   c-0.83,1.09-1.84,2.03-2.771,3.04c1.641,0.66,3.341,1.819,5.16,1.02c1.971-1.09,3.101-3.17,4.58-4.8c0.25,3.06-0.1,6.85-3.14,8.48   c-2.3,1.64-5.19,1.59-7.82,0.949c-1.09,4.021-4.43,6.95-8.7,6.88c2.13-2.199,5.49-5.31,3.32-8.6c-4.02-5.02-7-10.729-10.35-16.2   c0.449,3.181,0.63,6.471,1.93,9.45c1.11,2.771,3.34,4.84,5.16,7.13c-1.57,0.271-3.141,0.47-4.71,0.641   c1.12,3.68-1.061,6.85-3.07,9.71c-2.101-3.08-4.681-6.24-4.11-10.261c-1.909,0.41-3.82,0.78-5.74,1.101   c2.4-2.24,5.24-4.271,6.44-7.46c1.5-2.95,1.19-6.33,1.229-9.521c-2.68,5.851-8.299,9.78-10.579,15.82   c-1.36,2.93,0.49,5.74,1.73,8.31c-1.69-0.81-3.81-1.12-4.99-2.71c-0.69-1.38-0.9-2.93-1.3-4.399c-2.75,0.58-5.79,1.529-8.43,0.029   c-2.56-0.97-2.82-3.989-3.69-6.199c2.07,1.26,3.88,3.229,6.38,3.58c1.53-0.261,2.95-0.931,4.4-1.45c-0.9-1.37-2.14-2.601-2.54-4.23   c-0.38-2.05,0.92-3.79,1.74-5.54c1.26,1.91,2.15,5.16,5.1,4.74c6.49-1.37,8.85-8.76,10.009-14.46   c-2.839,1.03-5.869,1.52-8.869,0.87c2.22-1.95,5.19-3.41,6.25-6.37c1.609-4.08,0.78-8.59,0.46-12.83   c-3.18,3.16-5.95,7.04-5.66,11.76c-0.91-0.51-1.82-0.989-2.75-1.439c-2.9,3.7-5.85,7.42-7.75,11.77c3.19-0.91,6.56-2.09,9.82-0.729   c-0.14,2-0.43,4.01-1.45,5.779c-0.05-0.76-0.16-2.29-0.21-3.05c-0.74,0.36-1.48,0.71-2.22,1.07c-2.47-0.73-5.01-1.18-7.55-1.61   c-3.33,2.05-4.27,6.21-7.47,8.34c-0.13,0.25-0.4,0.771-0.54,1.03c-1.34,0.8-2.29,2.021-3.03,3.37c-0.76-0.96-1.5-1.91-2.25-2.87   c1.53-3.47,5.04-5.07,7.92-7.2c-2.43-0.01-4.85,0.17-7.28,0.101c-1.91,1.46-3.74,0.54-5.3-0.92c-0.75,0.83-1.49,1.649-2.24,2.479   c0.43-1.68,0.12-3.83,1.6-5.05c1.5-1.57,3.72-0.51,5.47-0.12c2.68,0.82,5.5,0.8,8.27,0.82c-2.12-0.97-4.3-1.8-6.41-2.8   c-1.25-0.811-2.46-1.67-3.59-2.641c-0.91,0.37-2.72,1.101-3.63,1.471c1.5-2.08,3.51-5.211,6.58-4.11c3.44,1.93,5.64,6.1,10.1,5.85   c2.74-3.859,5.12-7.97,7.87-11.819c-0.96-0.71-1.86-1.49-2.7-2.341c5.04-2.439,8.07-7.22,11.07-11.72   c-1.81-3.44-3.43-6.97-4.87-10.57c-2.46,7.45-4.58,15.09-8.18,22.1c-1.16,2.55-4.53,4.14-6.97,2.28c-1.9-0.91-1.72-3.33-2.42-5.021   c0.79,0.061,2.36,0.19,3.14,0.25c3.8-4.57,4.92-10.6,5.66-16.33c-2.69,5.33-5.39,10.83-9.95,14.851c-1.97-0.21-4.62,0.449-5.8-1.62   c-1.11-1.95,0.19-4.04,0.61-5.99c0.53,0.53,1.58,1.58,2.11,2.1c4.98-2.229,5.91-8.56,7.57-13.209c-3.08,2.74-5.35,6.65-9.33,8.21   c-2.36,1-5.14-0.71-5.77-3.08c0.24-2.15,1.15-4.14,1.86-6.16c0.71,1.28,1.43,2.55,2.19,3.81c3.9-2.64,6.29-6.82,8.09-11.07   c-2.95,1.67-5.81,3.75-9.22,4.33c-2.33,0.5-5.09-0.729-5.76-3.14c0.04-1.81,0.98-3.44,1.55-5.12c0.72,1.3,1.45,2.59,2.2,3.89   c4.29-1.74,6.92-5.66,9.8-9.05c-3.49,1.46-6.9,3.62-10.79,3.7c-1.82-0.53-3.21-2.17-3.51-4.03c0.37-1.38,0.93-2.7,1.45-4.03   c1.22,1.08,2.36,2.31,3.85,3.03c3.51-0.66,6.22-3.19,9.05-5.16c-4.98,0.8-11.21,2.39-15.41-1.37c-2.36-2.51-0.42-5.64,1.45-7.71   c0.43,1.45,0.4,3.59,2.36,3.81c4.41,0.86,8.87-0.6,13.12-1.73c-4.86-1.23-9.92-1.75-14.59-3.64c-2.08-0.77-3.97-2.74-3.74-5.09   c-0.08-2.05,1.89-3.11,3.12-4.41c1.29,1.43,2.56,3.12,4.57,3.54c6.15,1.7,12.72,1.77,18.67,4.21c2.7,0.71,1.95,3.87,1.98,5.92   c2.34,0.21,4.74,0.85,7.06,0.14c2.38-0.48,5.06-2.06,7.26-0.24c-0.29,1.32-2.63,0.51-3.67,0.979c-2.1,0.49-3.82,2.25-6.12,2.07   c-2.33,0.38-3.8-1.55-5.29-2.95c-2.06,3.04-5.14,5.77-5.62,9.6c-0.46,3.56,1.57,6.68,3.03,9.74c1.59-1.53,3.25-3.99,5.81-3.38   c2.3,0.33,3.11,2.8,4.28,4.46c1.42-0.92,2.83-2.62,4.73-2.04c1.22,0.61,2.08,1.72,3.07,2.63c1.04-5.65,3.029-11.05,4.49-16.6   c-4.4,0.07-9.01,0.99-13.18-0.93c4.04-0.65,8.11-1.14,12.06-2.23c-0.38-0.15-1.141-0.46-1.521-0.61c-1.729-0.8,1.19-1.27,1.84-1.45   c-0.88-1.64-2.619-3.03-4.58-2.29c-2.47,1.36-4.34-2.13-6.83-1.03c-1.49,0.93-2.78,2.13-4.14,3.23c-0.14-1.46-0.56-2.94-0.3-4.41   c0.95-1.93,3.13-2.5,5.06-2.83c2.82-0.47,5.37-1.82,8.031-2.78c2.639,0.06,5.279,1.03,7.909,0.43c0.96-1.24,1.45-2.77,2.16-4.16   c0.66,2.4,0.94,4.86,1.4,7.29c2.64,0.93,4.51-1.41,6.489-2.68c-0.09,2.85-1.779,4.97-3.87,6.7c1.511,2.02,3.4,3.7,5.431,5.18   c-1.83,0.32-3.67,0.57-5.51,0.78c0.8,1.99,1.699,3.92,2.739,5.8c-1.01-0.3-3.02-0.89-4.029-1.18c0.35,2.67,1.26,5.19,2.46,7.59   c-1.36-0.7-2.71-1.41-4.051-2.13c-0.489,1.75-0.96,3.51-1.439,5.27c2.35-1.12,4.42-0.3,5.91,1.67c0.91-1.65,1.58-3.74,3.54-4.43   c2.8-0.66,4.47,2.2,6.35,3.7c2.7-3.86,4.59-8.91,2.78-13.55c-0.86-3.29-5.391-3.62-6.12-6.95c-0.78-2.61,1.4-5.24,3.93-5.67   c5.82-1.08,11.721-1.9,17.391-3.63C97.719,12.626,98.66,10.196,99.669,8.236L99.669,8.236z"/>
	<path fill="#FFFF00" d="M50.899,14.186c2.839,1.39,5.57,2.99,8.3,4.58c-0.75-0.25-2.25-0.73-3.001-0.98   c-0.659,0.33-1.979,1-2.64,1.33c-0.229-0.12-0.67-0.36-0.89-0.48C52.139,17.126,51.52,15.656,50.899,14.186L50.899,14.186z"/>
	<path fill="#080800" d="M53.069,16.906C56.08,15.306,53.25,20.296,53.069,16.906L53.069,16.906z"/>
</g>
</svg>
